HIERARCHY
ROOT hip
{
  OFFSET 0 0 0
  CHANNELS 6 Xposition Yposition Zposition Zrotation Yrotation Xrotation
  JOINT abdomen
  {
    OFFSET 0 20.6881 -0.73152
    CHANNELS 3 Zrotation Xrotation Yrotation
    JOINT chest
    {
      OFFSET 0 11.7043 -0.48768
      CHANNELS 3 Zrotation Xrotation Yrotation
      JOINT neck
      {
        OFFSET 0 22.1894 -2.19456
        CHANNELS 3 Zrotation Xrotation Yrotation
        JOINT head
        {
          OFFSET -0.24384 7.07133 1.2192
          CHANNELS 3 Zrotation Xrotation Yrotation
          JOINT leftEye
          {
            OFFSET 4.14528 8.04674 8.04672
            CHANNELS 3 Zrotation Xrotation Yrotation
            End Site
            {
              OFFSET 1 0 0
            }
          }
          JOINT rightEye
          {
            OFFSET -3.6576 8.04674 8.04672
            CHANNELS 3 Zrotation Xrotation Yrotation
            End Site
            {
              OFFSET 1 0 0
            }
          }
        }
      }
      JOINT rCollar
      {
        OFFSET -2.68224 19.2634 -4.8768
        CHANNELS 3 Zrotation Xrotation Yrotation
        JOINT rShldr
        {
          OFFSET -8.77824 -1.95073 1.46304
          CHANNELS 3 Zrotation Xrotation Yrotation
          JOINT rForeArm
          {
            OFFSET -28.1742 -1.7115 0.48768
            CHANNELS 3 Zrotation Xrotation Yrotation
            JOINT rHand
            {
              OFFSET -22.5879 0.773209 7.07136
              CHANNELS 3 Zrotation Xrotation Yrotation
              JOINT rThumb1
              {
                OFFSET -1.2192 -0.487915 3.41376
                CHANNELS 3 Zrotation Xrotation Yrotation
                JOINT rThumb2
                {
                  OFFSET -3.37035 -0.52449 3.41376
                  CHANNELS 3 Zrotation Xrotation Yrotation
                  End Site
                  {
                    OFFSET -1.78271 -1.18214 1.43049
                  }
                }
              }
              JOINT rIndex1
              {
                OFFSET -7.75947 0.938293 5.60832
                CHANNELS 3 Zrotation Xrotation Yrotation
                JOINT rIndex2
                {
                  OFFSET -2.54057 -0.884171 1.56538
                  CHANNELS 3 Zrotation Xrotation Yrotation
                  End Site
                  {
                    OFFSET -1.62519 -0.234802 1.16502
                  }
                }
              }
              JOINT rMid1
              {
                OFFSET -8.24714 1.18213 3.41376
                CHANNELS 3 Zrotation Xrotation Yrotation
                JOINT rMid2
                {
                  OFFSET -3.10165 -0.590103 1.0647
                  CHANNELS 3 Zrotation Xrotation Yrotation
                  End Site
                  {
                    OFFSET -2.48547 -0.328903 0.83742
                  }
                }
              }
              JOINT rRing1
              {
                OFFSET -8.82822 0.546677 1.51678
                CHANNELS 3 Zrotation Xrotation Yrotation
                JOINT rRing2
                {
                  OFFSET -2.60934 -0.819778 -0.0198488
                  CHANNELS 3 Zrotation Xrotation Yrotation
                  End Site
                  {
                    OFFSET -2.33842 -0.294052 0.168128
                  }
                }
              }
              JOINT rPinky1
              {
                OFFSET -8.27202 -0.0477905 -0.4584
                CHANNELS 3 Zrotation Xrotation Yrotation
                JOINT rPinky2
                {
                  OFFSET -1.82734 -0.647385 -0.700984
                  CHANNELS 3 Zrotation Xrotation Yrotation
                  End Site
                  {
                    OFFSET -1.69225 -0.51767 -0.607171
                  }
                }
              }
            }
          }
        }
      }
      JOINT lCollar
      {
        OFFSET 2.68224 19.2634 -4.8768
        CHANNELS 3 Zrotation Xrotation Yrotation
        JOINT lShldr
        {
          OFFSET 8.77824 -1.95073 1.46304
          CHANNELS 3 Zrotation Xrotation Yrotation
          JOINT lForeArm
          {
            OFFSET 28.1742 -1.7115 0.48768
            CHANNELS 3 Zrotation Xrotation Yrotation
            JOINT lHand
            {
              OFFSET 22.5879 0.773209 7.07136
              CHANNELS 3 Zrotation Xrotation Yrotation
              JOINT lThumb1
              {
                OFFSET 1.2192 -0.487915 3.41376
                CHANNELS 3 Zrotation Xrotation Yrotation
                JOINT lThumb2
                {
                  OFFSET 3.37035 -0.52449 3.41376
                  CHANNELS 3 Zrotation Xrotation Yrotation
                  End Site
                  {
                    OFFSET 1.78271 -1.18214 1.43049
                  }
                }
              }
              JOINT lIndex1
              {
                OFFSET 7.75947 0.938293 5.60832
                CHANNELS 3 Zrotation Xrotation Yrotation
                JOINT lIndex2
                {
                  OFFSET 2.54057 -0.884171 1.56538
                  CHANNELS 3 Zrotation Xrotation Yrotation
                  End Site
                  {
                    OFFSET 1.62519 -0.234802 1.16502
                  }
                }
              }
              JOINT lMid1
              {
                OFFSET 8.24714 1.18213 3.41376
                CHANNELS 3 Zrotation Xrotation Yrotation
                JOINT lMid2
                {
                  OFFSET 3.10165 -0.590103 1.0647
                  CHANNELS 3 Zrotation Xrotation Yrotation
                  End Site
                  {
                    OFFSET 2.48547 -0.328903 0.83742
                  }
                }
              }
              JOINT lRing1
              {
                OFFSET 8.82822 0.546677 1.51678
                CHANNELS 3 Zrotation Xrotation Yrotation
                JOINT lRing2
                {
                  OFFSET 2.60934 -0.819778 -0.0198488
                  CHANNELS 3 Zrotation Xrotation Yrotation
                  End Site
                  {
                    OFFSET 2.33842 -0.294052 0.168128
                  }
                }
              }
              JOINT lPinky1
              {
                OFFSET 8.27202 -0.0477905 -0.4584
                CHANNELS 3 Zrotation Xrotation Yrotation
                JOINT lPinky2
                {
                  OFFSET 1.82734 -0.647385 -0.700984
                  CHANNELS 3 Zrotation Xrotation Yrotation
                  End Site
                  {
                    OFFSET 1.69225 -0.51767 -0.607171
                  }
                }
              }
            }
          }
        }
      }
    }
  }
  JOINT rButtock
  {
    OFFSET -8.77824 4.35084 1.2192
    CHANNELS 3 Zrotation Xrotation Yrotation
    JOINT rThigh
    {
      OFFSET 0 -1.70687 -2.19456
      CHANNELS 3 Zrotation Xrotation Yrotation
      JOINT rShin
      {
        OFFSET 0 -36.8199 0.73152
        CHANNELS 3 Zrotation Xrotation Yrotation
        JOINT rFoot
        {
          OFFSET 0.73152 -45.1104 -5.12064
          CHANNELS 3 Zrotation Xrotation Yrotation
          End Site
          {
            OFFSET -1.1221 -3.69964 12.103
          }
        }
      }
    }
  }
  JOINT lButtock
  {
    OFFSET 8.77824 4.35084 1.2192
    CHANNELS 3 Zrotation Xrotation Yrotation
    JOINT lThigh
    {
      OFFSET 0 -1.70687 -2.19456
      CHANNELS 3 Zrotation Xrotation Yrotation
      JOINT lShin
      {
        OFFSET 0 -36.8199 0.73152
        CHANNELS 3 Zrotation Xrotation Yrotation
        JOINT lFoot
        {
          OFFSET -0.73152 -45.1104 -5.12064
          CHANNELS 3 Zrotation Xrotation Yrotation
          End Site
          {
            OFFSET 1.1221 -3.69964 12.103
          }
        }
      }
    }
  }
}
MOTION
Frames:	8
Frame Time:	0.00833333
-55.152 82.1137 31.9222 -33.6237 76.101 -18.2999 -3.52836 9.86139 2.77531 3.74839 3.19228 0.733719 4.30231 3.88094 2.33944 -12.4271 28.2069 10.4025 -0.0 0.0 0.0 -0.0 0.0 0.0 -1.41997e-13 1.78511e-12 1.63671e-13 58.1586 48.2113 41.6718 -16.9439 -9.59458 31.6914 -2.85211 -42.3371 -7.35678 -2.42822e-10 -8.1112e-11 -5.94332e-10 -4.05248e-10 -1.24111e-10 -1.03395e-09 -2.42819e-10 -8.11031e-11 -5.9436e-10 7.73091 5.47488 0.417314 -2.42822e-10 -8.11126e-11 -5.94333e-10 2.90554 0.965183 0.102902 -2.42821e-10 -8.11127e-11 -5.94328e-10 10.2786 0.731801 0.0259123 -2.42832e-10 -8.10992e-11 -5.94321e-10 2.22167 -0.733487 -0.20892 -1.4208e-13 1.78511e-12 1.63344e-13 -39.0871 56.1039 -63.7078 15.6998 -8.41112 -29.042 3.73026 -46.7975 8.60682 -1.15582e-09 -5.66508e-10 3.57086e-10 -2.00362e-09 -8.82741e-10 5.7076e-10 -1.15583e-09 -5.66508e-10 3.57107e-10 -7.73091 5.47488 -0.417314 -1.15582e-09 -5.66504e-10 3.57089e-10 -2.90554 0.965183 -0.102902 -1.15583e-09 -5.66505e-10 3.57084e-10 -10.2786 0.731801 -0.0259123 -1.15582e-09 -5.66507e-10 3.57078e-10 -2.22167 -0.733487 0.20892 -2.03217e-16 0.0 -3.88251e-19 -0.0683861 -34.4978 1.03546 -0.156828 24.7577 0.361634 0.134511 -1.6141 3.51218 2.03217e-16 0.0 3.88251e-19 18.2828 -32.4183 11.6557 0.147431 34.3672 -0.788832 1.3818 -8.7946 5.91985
-55.1458 82.1174 31.8608 -33.8819 76.3417 -18.5513 -3.4305 9.83856 2.77336 3.72632 3.18973 0.736707 4.27735 3.89597 2.29992 -12.3818 28.1962 10.3288 -0.0 0.0 0.0 -0.0 0.0 0.0 -1.06601e-13 1.45615e-12 1.7662e-13 58.1428 48.2394 41.6515 -16.9637 -9.61424 31.7345 -2.8731 -42.4563 -7.38782 -3.47979e-10 -4.07666e-11 -4.52176e-10 -5.92899e-10 -4.44387e-11 -7.90691e-10 -3.47977e-10 -4.0756e-11 -4.52208e-10 7.73091 5.47488 0.417314 -3.4798e-10 -4.07676e-11 -4.52176e-10 2.90554 0.965183 0.102902 -3.47979e-10 -4.07676e-11 -4.52171e-10 10.2786 0.731801 0.0259123 -3.4799e-10 -4.07521e-11 -4.52164e-10 2.22167 -0.733487 -0.20892 -1.06652e-13 1.45615e-12 1.76322e-13 -39.0347 56.1328 -63.7452 15.7202 -8.42984 -29.0843 3.75509 -46.9113 8.6411 -1.54956e-09 -9.87979e-10 6.25825e-10 -2.69054e-09 -1.58751e-09 1.01935e-09 -1.54957e-09 -9.8798e-10 6.2585e-10 -7.73091 5.47488 -0.417314 -1.54956e-09 -9.87975e-10 6.25828e-10 -2.90554 0.965183 -0.102902 -1.54957e-09 -9.87975e-10 6.25823e-10 -10.2786 0.731801 -0.0259123 -1.54956e-09 -9.87976e-10 6.25815e-10 -2.22167 -0.733487 0.20892 -2.03217e-16 0.0 -3.88251e-19 -0.187425 -34.5198 0.882571 -0.157126 24.7877 0.361618 0.124964 -1.65459 3.40752 2.03217e-16 0.0 3.88251e-19 18.213 -32.5163 11.5574 0.147144 34.3419 -0.786924 1.34506 -8.82551 5.73787
-55.1435 82.1205 31.7952 -34.0589 76.5769 -18.7022 -3.38112 9.82821 2.81121 3.73596 3.18589 0.748819 4.25851 3.91809 2.26929 -12.3347 28.1673 10.2668 -0.0 0.0 0.0 -0.0 0.0 0.0 -9.56236e-14 1.32556e-12 1.11064e-13 58.1993 48.2282 41.6336 -16.9507 -9.60141 31.7064 -2.87439 -42.4633 -7.38969 -1.33121e-10 -4.20407e-11 -4.31757e-10 -2.21781e-10 -5.05414e-11 -7.48283e-10 -1.33118e-10 -4.20312e-11 -4.31785e-10 7.73091 5.47488 0.417314 -1.33122e-10 -4.20416e-11 -4.31756e-10 2.90554 0.965183 0.102902 -1.3312e-10 -4.20417e-11 -4.31751e-10 10.2786 0.731801 0.0259123 -1.33132e-10 -4.20279e-11 -4.31743e-10 2.22167 -0.733487 -0.20892 -9.56593e-14 1.32556e-12 1.10792e-13 -38.8374 56.2146 -63.8777 15.7912 -8.4951 -29.2321 3.84429 -47.3122 8.76343 -1.19232e-09 -7.59553e-10 4.71878e-10 -2.06965e-09 -1.22077e-09 7.67641e-10 -1.19232e-09 -7.59554e-10 4.71903e-10 -7.73091 5.47488 -0.417314 -1.19232e-09 -7.5955e-10 4.71881e-10 -2.90554 0.965183 -0.102902 -1.19233e-09 -7.5955e-10 4.71876e-10 -10.2786 0.731801 -0.0259123 -1.19232e-09 -7.5955e-10 4.71869e-10 -2.22167 -0.733487 0.20892 -2.03217e-16 0.0 -3.88251e-19 -0.251557 -34.5114 0.88625 -0.157152 24.7906 0.361423 0.103516 -1.67277 3.21525 2.03217e-16 0.0 3.88251e-19 18.1646 -32.5713 11.4749 0.146851 34.315 -0.785201 1.30626 -8.88299 5.53653
-55.1432 82.1239 31.7362 -33.9002 76.7476 -18.5078 -3.35432 9.82423 2.86336 3.76963 3.18333 0.763682 4.23288 3.94571 2.24757 -12.2886 28.1249 10.2212 -0.0 0.0 0.0 -0.0 0.0 0.0 -9.5167e-14 1.26396e-12 -9.00748e-16 58.2792 48.204 41.631 -16.9179 -9.56882 31.6351 -2.86476 -42.4085 -7.37543 2.6166e-10 -6.73244e-11 -4.62752e-10 4.63219e-10 -1.06988e-10 -7.89462e-10 2.61663e-10 -6.73178e-11 -4.62771e-10 7.73091 5.47488 0.417314 2.61659e-10 -6.73251e-11 -4.62749e-10 2.90554 0.965183 0.102902 2.61663e-10 -6.73253e-11 -4.62745e-10 10.2786 0.731801 0.0259123 2.61649e-10 -6.73156e-11 -4.62737e-10 2.22167 -0.733487 -0.20892 -9.51942e-14 1.26394e-12 -1.14613e-15 -38.5604 56.3263 -64.0615 15.8971 -8.59262 -29.4543 3.98378 -47.9166 8.95242 -3.75049e-10 -1.32204e-10 5.43398e-11 -6.47443e-10 -1.97129e-10 7.89753e-11 -3.75052e-10 -1.32205e-10 5.43607e-11 -7.73091 5.47488 -0.417314 -3.75048e-10 -1.32203e-10 5.43414e-11 -2.90554 0.965183 -0.102902 -3.75054e-10 -1.32203e-10 5.43397e-11 -10.2786 0.731801 -0.0259123 -3.75046e-10 -1.32202e-10 5.43334e-11 -2.22167 -0.733487 0.20892 -2.03217e-16 0.0 -3.88251e-19 -0.277502 -34.4838 0.993025 -0.156989 24.7741 0.361075 0.0737362 -1.67628 2.96025 2.03217e-16 0.0 3.88251e-19 18.1319 -32.602 11.396 0.146559 34.2873 -0.783589 1.2648 -8.95968 5.31768
-55.1351 82.1297 31.7131 -34.0279 76.8266 -18.6438 -3.33564 9.82271 2.91555 3.80219 3.18475 0.778269 4.21075 3.96607 2.22423 -12.231 28.0852 10.1679 -0.0 0.0 0.0 -0.0 0.0 0.0 -9.70952e-14 1.20572e-12 -1.22305e-13 58.3651 48.1687 41.631 -16.8811 -9.53241 31.5556 -2.84955 -42.3217 -7.35287 6.75932e-10 -9.43633e-11 -4.89511e-10 1.18208e-09 -1.68409e-10 -8.2296e-10 6.75936e-10 -9.43596e-11 -4.89521e-10 7.73091 5.47488 0.417314 6.75932e-10 -9.43636e-11 -4.89508e-10 2.90554 0.965183 0.102902 6.75937e-10 -9.43639e-11 -4.89503e-10 10.2786 0.731801 0.0259123 6.75922e-10 -9.43585e-11 -4.89496e-10 2.22167 -0.733487 -0.20892 -9.71183e-14 1.20571e-12 -1.22525e-13 -38.3074 56.4221 -64.2252 15.9926 -8.68068 -29.6564 4.11137 -48.4477 9.1231 5.52515e-10 5.89262e-10 -4.23406e-10 9.66773e-10 9.82659e-10 -7.09362e-10 5.52512e-10 5.89261e-10 -4.2339e-10 -7.73091 5.47488 -0.417314 5.52516e-10 5.89262e-10 -4.23406e-10 -2.90554 0.965183 -0.102902 5.5251e-10 5.89262e-10 -4.23405e-10 -10.2786 0.731801 -0.0259123 5.5252e-10 5.89264e-10 -4.2341e-10 -2.22167 -0.733487 0.20892 -2.03217e-16 0.0 -3.88251e-19 -0.307702 -34.4508 1.11015 -0.156788 24.7536 0.360649 0.0421843 -1.67848 2.69139 2.03217e-16 0.0 3.88251e-19 18.0932 -32.635 11.3195 0.146252 34.2609 -0.781887 1.22162 -9.03361 5.09407
-55.1327 82.1353 31.7045 -34.9361 76.9458 -19.5533 -3.31063 9.81978 2.9535 3.8085 3.19283 0.789551 4.20243 3.96641 2.18875 -12.1496 28.0644 10.083 -0.0 0.0 0.0 -0.0 0.0 0.0 -9.32722e-14 1.08525e-12 -2.16178e-13 58.4396 48.1245 41.6208 -16.8568 -9.50826 31.5031 -2.83401 -42.2326 -7.32978 9.49264e-10 -1.00903e-10 -4.56387e-10 1.65477e-09 -1.89434e-10 -7.57507e-10 9.49268e-10 -1.009e-10 -4.56391e-10 7.73091 5.47488 0.417314 9.49265e-10 -1.00903e-10 -4.56384e-10 2.90554 0.965183 0.102902 9.49272e-10 -1.00903e-10 -4.56379e-10 10.2786 0.731801 0.0259123 9.49254e-10 -1.009e-10 -4.56371e-10 2.22167 -0.733487 -0.20892 -9.32933e-14 1.08524e-12 -2.16377e-13 -38.1837 56.4566 -64.2953 16.0335 -8.71848 -29.7436 4.15594 -48.6295 9.1824 1.24063e-09 1.10004e-09 -7.57977e-10 2.16369e-09 1.81785e-09 -1.26009e-09 1.24063e-09 1.10004e-09 -7.57964e-10 -7.73091 5.47488 -0.417314 1.24063e-09 1.10004e-09 -7.57977e-10 -2.90554 0.965183 -0.102902 1.24063e-09 1.10004e-09 -7.57975e-10 -10.2786 0.731801 -0.0259123 1.24064e-09 1.10004e-09 -7.5798e-10 -2.22167 -0.733487 0.20892 -2.03217e-16 0.0 -3.88251e-19 -0.384299 -34.4264 1.14506 -0.156699 24.7448 0.360218 0.0152078 -1.69275 2.45752 2.03217e-16 0.0 3.88251e-19 18.0266 -32.697 11.2436 0.145911 34.238 -0.779897 1.17804 -9.08282 4.87851
-55.1387 82.1388 31.658 -35.6596 77.2017 -20.2349 -3.28501 9.8149 2.97228 3.76924 3.20835 0.796449 4.22148 3.93766 2.13324 -12.0309 28.0746 9.94655 -0.0 0.0 0.0 -0.0 0.0 0.0 -8.25279e-14 8.78676e-13 -2.80332e-13 58.5133 48.0601 41.5857 -16.8508 -9.50232 31.4902 -2.81709 -42.1351 -7.30462 1.00283e-09 -7.68794e-11 -3.04717e-10 1.74345e-09 -1.53351e-10 -4.94708e-10 1.00283e-09 -7.68751e-11 -3.04719e-10 7.73091 5.47488 0.417314 1.00283e-09 -7.68792e-11 -3.04715e-10 2.90554 0.965183 0.102902 1.00283e-09 -7.68796e-11 -3.0471e-10 10.2786 0.731801 0.0259123 1.00282e-09 -7.68747e-11 -3.04702e-10 2.22167 -0.733487 -0.20892 -8.25518e-14 8.78665e-13 -2.8051e-13 -38.2954 56.3887 -64.1846 15.9872 -8.6757 -29.6448 4.04824 -48.1909 9.03941 1.68298e-09 1.4178e-09 -9.75026e-10 2.93349e-09 2.34059e-09 -1.61767e-09 1.68297e-09 1.4178e-09 -9.75015e-10 -7.73091 5.47488 -0.417314 1.68298e-09 1.4178e-09 -9.75026e-10 -2.90554 0.965183 -0.102902 1.68297e-09 1.4178e-09 -9.75024e-10 -10.2786 0.731801 -0.0259123 1.68298e-09 1.4178e-09 -9.7503e-10 -2.22167 -0.733487 0.20892 -2.03217e-16 0.0 -3.88251e-19 -0.538247 -34.4152 1.06205 -0.156775 24.7545 0.359823 -0.00558502 -1.73097 2.2693 2.03217e-16 0.0 3.88251e-19 17.9072 -32.8025 11.1631 0.145425 34.2193 -0.777427 1.13461 -9.09688 4.67496
-55.1389 82.142 31.5883 -35.7615 77.4816 -20.3086 -3.26332 9.80998 2.97989 3.70201 3.22984 0.800667 4.25871 3.88849 2.06502 -11.8847 28.1044 9.77565 -0.0 0.0 0.0 -0.0 0.0 0.0 -6.88684e-14 6.23109e-13 -3.31927e-13 58.5903 47.9782 41.5364 -16.854 -9.50549 31.4971 -2.79692 -42.0182 -7.27452 9.34198e-10 -3.55384e-11 -7.87865e-11 1.61853e-09 -8.58966e-11 -1.07926e-10 9.34202e-10 -3.55305e-11 -7.87897e-11 7.73091 5.47488 0.417314 9.34199e-10 -3.5538e-11 -7.87881e-11 2.90554 0.965183 0.102902 9.34207e-10 -3.55384e-11 -7.8782e-11 10.2786 0.731801 0.0259123 9.34191e-10 -3.55298e-11 -7.87728e-11 2.22167 -0.733487 -0.20892 -6.89001e-14 6.23105e-13 -3.32085e-13 -38.5595 56.2518 -63.9559 15.8838 -8.58041 -29.426 3.84996 -47.3443 8.77215 2.03711e-09 1.67211e-09 -1.15639e-09 3.55023e-09 2.76272e-09 -1.91719e-09 2.0371e-09 1.67211e-09 -1.15639e-09 -7.73091 5.47488 -0.417314 2.03711e-09 1.67211e-09 -1.15639e-09 -2.90554 0.965183 -0.102902 2.0371e-09 1.67211e-09 -1.15639e-09 -10.2786 0.731801 -0.0259123 2.03711e-09 1.67211e-09 -1.1564e-09 -2.22167 -0.733487 0.20892 -2.03217e-16 0.0 -3.88251e-19 -0.74042 -34.4094 0.914195 -0.156931 24.7736 0.359417 -0.0237293 -1.78325 2.10146 2.03217e-16 0.0 3.88251e-19 17.7529 -32.9348 11.0801 0.144838 34.2036 -0.774628 1.09098 -9.08901 4.47646
